PathFileType	4	(X/Y/Z)	C:/Users/beibeiliu/ov580/test_trc/User2\sequence.14_training_dense_left.trc
DataRate	CameraRate	NumFrames	NumMarkers	Units	OrigDataRate	OrigDataStartFrame	OrigNumFrames
120	120	8	19	mm	120	53	420
Frame#	Time	ThumbCMC			ThumbMCP			ThumbIP			ThumbTip			IndexMCP			IndexPIP			IndexTip			MiddleMCP			MiddlePIP			MiddleTip			RingMCP			RingPIP			RingTip			PinkyMCP			PinkyPIP			PinkyTip			BackHand1			BackHand2			BackHand3	
		X0	Y0	Z0	X1	Y1	Z1	X2	Y2	Z2	X3	Y3	Z3	X4	Y4	Z4	X5	Y5	Z5	X6	Y6	Z6	X7	Y7	Z7	X8	Y8	Z8	X9	Y9	Z9	X10	Y10	Z10	X11	Y11	Z11	X12	Y12	Z12	X13	Y13	Z13	X14	Y14	Z14	X15	Y15	Z15	X16	Y16	Z16	X17	Y17	Z17	X18	Y18	Z18	
52	0.433333	-103.747	32.0247	94.4748	-89.0491	-0.584587	81.2241	-95.3906	-35.5721	56.3473	-119.939	-49.7408	50.5884	-131.579	31.4962	17.8386	-132.063	24.5136	-8.74686	-135.753	16.9568	-36.3401	-145.686	-1.61345	17.1956	-128.558	-31.168	18.1153	-112.531	-34.0208	56.6616	-162.853	-11.7085	31.7752	-142.876	-38.9097	31.4127	-127.293	-39.1068	64.9268	-187.419	-3.63073	50.0904	-195.037	-13.6053	24.6914	-206.579	-18.0269	2.85113	-169.698	31.3287	76.1877	-173.689	46.8601	109.688	-139.995	55.3671	80.3619	
53	0.441667	-99.8642	39.2597	98.2665	-84.909	4.10669	79.0274	-87.6755	-28.9326	60.2621	-110.287	-44.0493	54.5701	-127.365	36.0684	19.3165	-126.064	28.6687	-9.12722	-126.678	22.0741	-32.8689	-135.739	3.52975	17.5217	-119.247	-29.4034	22.2541	-107.689	-30.0848	60.0621	-151.374	-8.80961	29.0379	-136.565	-35.9245	32.7578	-118.28	-34.8438	62.7841	-179.67	-1.34866	48.9533	-186.042	-13.4865	24.4584	-194.819	-20.4326	3.93604	-171.694	34.7928	79.45	-171.986	48.7586	106.658	-138.782	59.4585	80.34	
54	0.45	-100.154	45.8083	94.1442	-82.2318	14.6456	83.8101	-79.3352	-19.4478	65.2738	-98.9499	-38.519	58.5025	-125.147	38.7874	18.0259	-122.787	31.0943	-12.4118	-121.82	23.0949	-33.6556	-134.09	4.14219	19.9723	-109.264	-24.7719	24.8637	-97.193	-23.6675	62.2859	-147.966	-10.502	32.2165	-125.981	-36.1992	37.5486	-109.816	-28.3782	66.3316	-174.359	-5.7463	46.5303	-177.81	-19.3073	25.071	-180.436	-30.9186	3.10639	-169.765	33.6088	75.5821	-173.156	46.8059	106.772	-140.034	61.2615	80.9165	
55	0.458333	-104.067	53.2267	95.0131	-78.0257	23.1362	84.4734	-73.0717	-8.672	71.7259	-84.1434	-35.1333	61.2645	-123.238	38.6811	18.8147	-118.019	29.0131	-9.83168	-115.573	19.8283	-34.7794	-124	5.64052	20.1814	-96.2369	-20.7363	26.085	-88.4218	-20.4245	63.1983	-137.043	-8.19277	32.286	-110.517	-33.4237	40.3987	-99.0019	-22.6893	69.8112	-166.025	-10.8422	48.2602	-163.433	-24.6309	27.0118	-163.151	-44.694	3.419	-164.73	31.8089	73.6179	-172.288	47.2741	99.5557	-146.045	64.3342	79.0918	
56	0.466667	-108.072	61.7376	90.6947	-76.3527	37.3013	86.0979	-60.787	5.57611	75.425	-67.0874	-22.1216	69.388	-120.043	37.9409	14.47	-111.56	28.7295	-9.74368	-106.566	19.0492	-32.5057	-114.451	3.28416	20.5862	-84.2701	-16.4453	32.3894	-77.6112	-8.61828	70.7353	-126.246	-11.301	34.9791	-95.9928	-28.4959	44.8163	-87.4518	-10.6661	74.4677	-151.451	-15.024	51.7923	-145.375	-32.2618	30.6095	-137.042	-52.4184	9.90036	-165.334	20.9534	68.3723	-179.05	40.0445	97.9668	-148.6	60.2199	71.7222	
57	0.475	-120.85	67.8669	90.0004	-84.7799	52.128	86.8367	-61.803	21.947	78.7005	-60.4075	-3.49245	75.926	-118.228	33.4654	11.3528	-109.097	22.3147	-10.3042	-100.031	13.2902	-33.7036	-107.381	1.57124	23.2962	-75.2587	-8.34761	33.2139	-68.8567	7.04561	73.8982	-110.17	-14.4527	36.2056	-80.4571	-19.2094	47.0638	-76.4231	-1.71265	75.4171	-137.33	-23.3892	53.8705	-124.19	-41.9491	33.536	-112.503	-54.5707	17.1024	-161.239	12.229	71.184	-178.714	31.6732	92.0953	-158.842	52.8611	69.0489	
58	0.483333	-133.389	72.1681	83.4795	-94.9132	62.5939	83.3019	-64.626	45.235	79.4765	-54.8879	15.6092	76.9399	-121.706	29.5092	12.2094	-108.071	20.3505	-9.61063	-94.4163	8.92683	-35.2115	-103.206	3.36719	26.0573	-65.2815	5.65432	38.8874	-64.6405	24.4941	73.3707	-102.971	-12.5035	40.7235	-70.297	-8.5164	51.9376	-69.6738	12.6352	76.9523	-122.718	-27.1666	56.7539	-105.043	-37.6573	39.5441	-87.2634	-50.2058	21.9924	-156.057	5.37431	66.6071	-180.071	16.3583	91.9734	-165.566	40.3048	63.3915	
59	0.491667	-148.589	69.2747	77.5485	-108.169	70.5167	77.8719	-74.1611	60.7287	75.6625	-59.3934	34.3539	76.9321	-122.033	25.5898	5.21937	-105.97	20.8185	-16.5267	-91.6472	10.4469	-31.6548	-96.227	5.07215	24.5076	-64.6393	17.5929	33.6286	-66.7683	36.7401	69.7413	-91.4244	-7.58744	41.5321	-64.8002	8.61683	52.0815	-71.5081	31.0184	80.4795	-110.364	-24.0758	60.8134	-86.8462	-35.2089	41.5119	-71.7164	-40.1388	28.1072	-153.826	-6.50673	71.6722	-178.155	0.872361	90.0937	-170.926	30.8531	58.2498	
